<svg width="100" height="60" viewBox="0 0 100 60" fill="none" xmlns="http://www.w3.org/2000/svg">
<path d="M35.098 29.504C35.314 28.736 35.656 28.094 36.124 27.578C36.592 27.062 37.132 26.672 37.744 26.408C38.356 26.144 38.992 26 39.652 25.976C40.312 25.94 40.948 26.024 41.56 26.228C42.172 26.42 42.706 26.726 43.162 27.146C43.678 27.626 44.05 28.178 44.278 28.802C44.518 29.414 44.65 30.062 44.674 30.746C44.746 32.114 44.596 33.416 44.224 34.652C43.852 35.876 43.198 37.01 42.262 38.054C41.974 38.378 41.608 38.654 41.164 38.882C40.72 39.122 40.24 39.308 39.724 39.44C39.208 39.584 38.698 39.656 38.194 39.656C37.69 39.668 37.234 39.602 36.826 39.458C36.406 39.302 36.01 39.038 35.638 38.666C35.278 38.294 34.984 37.862 34.756 37.37C34.54 36.878 34.426 36.386 34.414 35.894C34.414 35.798 34.42 35.57 34.432 35.21C34.444 34.85 34.468 34.418 34.504 33.914C34.54 33.398 34.588 32.864 34.648 32.312C34.708 31.748 34.774 31.22 34.846 30.728C34.918 30.236 35.002 29.828 35.098 29.504ZM34.792 35.858C34.816 36.506 34.996 37.094 35.332 37.622C35.68 38.138 36.124 38.546 36.664 38.846C37.216 39.146 37.816 39.278 38.464 39.242C39.52 39.194 40.414 38.906 41.146 38.378C41.89 37.85 42.514 37.148 43.018 36.272C43.498 35.444 43.834 34.58 44.026 33.68C44.23 32.78 44.32 31.862 44.296 30.926C44.296 29.918 44.032 29.036 43.504 28.28C42.988 27.512 42.298 26.978 41.434 26.678C40.726 26.438 40.018 26.33 39.31 26.354C38.614 26.378 37.948 26.618 37.312 27.074C36.772 27.458 36.322 27.914 35.962 28.442C35.614 28.97 35.38 29.564 35.26 30.224C35.212 30.524 35.164 30.902 35.116 31.358C35.068 31.802 35.026 32.27 34.99 32.762C34.954 33.254 34.918 33.722 34.882 34.166C34.846 34.61 34.822 34.988 34.81 35.3C34.798 35.6 34.792 35.786 34.792 35.858ZM35.746 33.482C35.77 32.858 35.848 32.222 35.98 31.574C36.112 30.914 36.31 30.266 36.574 29.63C36.886 28.85 37.372 28.256 38.032 27.848C38.692 27.428 39.418 27.266 40.21 27.362C40.678 27.41 41.116 27.584 41.524 27.884C41.944 28.184 42.298 28.562 42.586 29.018C42.874 29.462 43.048 29.942 43.108 30.458C43.24 31.538 43.18 32.582 42.928 33.59C42.688 34.598 42.268 35.54 41.668 36.416C41.404 36.812 41.092 37.166 40.732 37.478C40.372 37.79 39.964 38.018 39.508 38.162C39.064 38.306 38.56 38.33 37.996 38.234C37.42 38.114 36.934 37.844 36.538 37.424C36.154 36.992 35.932 36.47 35.872 35.858C35.848 35.486 35.824 35.108 35.8 34.724C35.788 34.34 35.77 33.926 35.746 33.482ZM36.934 36.992C37.09 37.208 37.306 37.388 37.582 37.532C37.858 37.676 38.146 37.766 38.446 37.802C38.746 37.826 39.01 37.778 39.238 37.658C39.706 37.394 40.156 37.106 40.588 36.794C41.02 36.47 41.362 36.062 41.614 35.57C42.046 34.718 42.358 33.836 42.55 32.924C42.742 32 42.742 31.058 42.55 30.098C42.418 29.39 42.106 28.838 41.614 28.442C41.122 28.034 40.522 27.818 39.814 27.794C39.562 27.782 39.274 27.836 38.95 27.956C38.638 28.076 38.332 28.244 38.032 28.46C37.732 28.676 37.474 28.922 37.258 29.198C37.054 29.462 36.934 29.738 36.898 30.026C36.862 30.302 36.802 30.668 36.718 31.124C36.634 31.58 36.556 32.078 36.484 32.618C36.412 33.158 36.364 33.704 36.34 34.256C36.328 34.808 36.364 35.324 36.448 35.804C36.532 36.272 36.694 36.668 36.934 36.992ZM51.211 33.59C51.211 33.206 51.205 32.852 51.193 32.528C51.181 32.204 51.181 31.856 51.193 31.484C51.193 31.28 51.229 31.106 51.301 30.962C51.385 30.806 51.523 30.704 51.715 30.656C51.967 30.584 52.183 30.62 52.363 30.764C52.543 30.896 52.639 31.106 52.651 31.394C52.663 31.91 52.669 32.426 52.669 32.942C52.669 33.458 52.657 33.98 52.633 34.508C52.633 34.856 52.621 35.21 52.597 35.57C52.573 35.93 52.531 36.284 52.471 36.632C52.423 36.992 52.351 37.346 52.255 37.694C52.171 38.042 52.081 38.39 51.985 38.738C51.901 39.002 51.751 39.218 51.535 39.386C51.331 39.554 51.103 39.674 50.851 39.746C50.263 39.914 49.663 39.998 49.051 39.998C48.451 39.998 47.863 39.866 47.287 39.602C46.951 39.434 46.687 39.224 46.495 38.972C46.315 38.72 46.183 38.42 46.099 38.072C45.907 37.232 45.799 36.392 45.775 35.552C45.751 34.712 45.769 33.872 45.829 33.032C45.853 32.768 45.871 32.51 45.883 32.258C45.895 32.006 45.913 31.754 45.937 31.502C45.949 31.406 45.961 31.31 45.973 31.214C45.997 31.106 46.033 31.01 46.081 30.926C46.165 30.758 46.273 30.644 46.405 30.584C46.549 30.524 46.693 30.518 46.837 30.566C47.101 30.65 47.275 30.812 47.359 31.052C47.407 31.172 47.431 31.286 47.431 31.394C47.443 31.49 47.443 31.604 47.431 31.736C47.359 32.66 47.311 33.584 47.287 34.508C47.275 35.432 47.347 36.35 47.503 37.262C47.683 38.222 48.259 38.666 49.231 38.594C49.759 38.546 50.149 38.42 50.401 38.216C50.665 38.024 50.839 37.67 50.923 37.154C50.971 36.854 51.013 36.506 51.049 36.11C51.097 35.702 51.133 35.306 51.157 34.922C51.181 34.538 51.199 34.22 51.211 33.968C51.223 33.716 51.223 33.59 51.211 33.59ZM47.107 31.466C47.071 31.37 47.023 31.268 46.963 31.16C46.903 31.04 46.825 30.974 46.729 30.962C46.633 30.95 46.537 30.992 46.441 31.088C46.357 31.172 46.297 31.262 46.261 31.358C46.225 31.454 46.195 31.676 46.171 32.024C46.159 32.36 46.147 32.78 46.135 33.284C46.135 33.776 46.141 34.298 46.153 34.85C46.177 35.39 46.207 35.924 46.243 36.452C46.291 36.968 46.351 37.424 46.423 37.82C46.531 38.372 46.729 38.786 47.017 39.062C47.317 39.35 47.755 39.542 48.331 39.638C48.691 39.71 49.039 39.734 49.375 39.71C49.723 39.686 50.065 39.638 50.401 39.566C50.833 39.47 51.157 39.29 51.373 39.026C51.589 38.762 51.739 38.444 51.823 38.072C52.087 37.04 52.231 36.008 52.255 34.976C52.279 33.932 52.309 32.894 52.345 31.862C52.357 31.802 52.351 31.712 52.327 31.592C52.315 31.472 52.285 31.358 52.237 31.25C52.189 31.13 52.117 31.064 52.021 31.052C51.949 31.04 51.871 31.064 51.787 31.124C51.703 31.184 51.643 31.244 51.607 31.304C51.559 31.364 51.529 31.442 51.517 31.538C51.505 31.634 51.499 31.73 51.499 31.826C51.499 32.426 51.499 33.032 51.499 33.644C51.511 34.244 51.499 34.844 51.463 35.444C51.439 35.852 51.391 36.26 51.319 36.668C51.247 37.064 51.145 37.454 51.013 37.838C50.917 38.15 50.737 38.402 50.473 38.594C50.209 38.786 49.909 38.912 49.573 38.972C49.249 39.044 48.919 39.038 48.583 38.954C48.259 38.882 47.983 38.726 47.755 38.486C47.503 38.246 47.335 37.97 47.251 37.658C47.167 37.346 47.125 37.028 47.125 36.704C47.113 36.404 47.107 36.044 47.107 35.624C47.107 35.192 47.107 34.748 47.107 34.292C47.119 33.824 47.125 33.386 47.125 32.978C47.125 32.558 47.125 32.216 47.125 31.952C47.125 31.676 47.119 31.514 47.107 31.466ZM55.7822 32.042C56.0943 31.742 56.4183 31.514 56.7543 31.358C57.0903 31.19 57.4383 31.118 57.7983 31.142C58.4703 31.19 59.0163 31.442 59.4363 31.898C59.8683 32.342 60.1143 33.032 60.1743 33.968C60.1983 34.088 60.2043 34.208 60.1923 34.328C60.1923 34.448 60.1863 34.562 60.1743 34.67C60.1623 34.886 60.0963 35.054 59.9763 35.174C59.8563 35.294 59.6943 35.348 59.4903 35.336C59.0943 35.336 58.8783 35.12 58.8423 34.688C58.8303 34.508 58.8123 34.328 58.7883 34.148C58.7643 33.968 58.7343 33.788 58.6982 33.608C58.6143 33.176 58.4163 32.942 58.1043 32.906C57.7923 32.858 57.4803 32.9 57.1683 33.032C56.8683 33.152 56.6283 33.332 56.4483 33.572C56.2683 33.8 56.1123 34.058 55.9803 34.346C55.8963 34.55 55.8423 34.856 55.8183 35.264C55.8063 35.672 55.8063 36.11 55.8183 36.578C55.8303 37.034 55.8483 37.454 55.8723 37.838C55.8963 38.21 55.9083 38.474 55.9083 38.63C55.9083 38.822 55.8423 39.032 55.7103 39.26C55.5783 39.488 55.4283 39.662 55.2603 39.782C55.1283 39.866 54.9663 39.896 54.7743 39.872C54.5943 39.86 54.4323 39.8 54.2883 39.692C54.1563 39.596 54.0783 39.47 54.0543 39.314C54.0303 39.098 54.0183 38.858 54.0183 38.594C54.0303 38.342 54.0423 38.114 54.0543 37.91C54.0663 37.61 54.0723 37.232 54.0723 36.776C54.0723 36.32 54.0723 35.846 54.0723 35.354C54.0843 34.85 54.0903 34.37 54.0903 33.914C54.1023 33.458 54.1083 33.074 54.1083 32.762C54.1083 32.438 54.1143 32.234 54.1263 32.15C54.1383 31.994 54.1683 31.82 54.2163 31.628C54.2643 31.436 54.3183 31.262 54.3783 31.106C54.4623 30.926 54.6003 30.806 54.7923 30.746C54.9963 30.686 55.1883 30.68 55.3683 30.728C55.5603 30.776 55.6803 30.89 55.7283 31.07C55.7763 31.25 55.7943 31.424 55.7822 31.592V32.042ZM55.6562 32.906C55.5843 32.954 55.5363 32.948 55.5123 32.888C55.5003 32.828 55.4943 32.75 55.4943 32.654C55.4943 32.558 55.4943 32.486 55.4943 32.438C55.4943 32.306 55.5003 32.18 55.5123 32.06C55.5363 31.928 55.5483 31.802 55.5483 31.682C55.5483 31.55 55.5243 31.43 55.4763 31.322C55.4283 31.214 55.3263 31.154 55.1703 31.142C55.0143 31.118 54.8943 31.154 54.8103 31.25C54.7383 31.334 54.6903 31.448 54.6663 31.592C54.6423 31.772 54.6183 31.952 54.5942 32.132C54.5703 32.312 54.5583 32.492 54.5583 32.672C54.5463 33.5 54.5343 34.328 54.5223 35.156C54.5103 35.972 54.4983 36.788 54.4863 37.604C54.4863 37.856 54.4863 38.114 54.4863 38.378C54.4983 38.642 54.5163 38.906 54.5403 39.17C54.5643 39.326 54.6483 39.428 54.7923 39.476C54.9483 39.524 55.0743 39.488 55.1703 39.368C55.3383 39.164 55.4343 38.906 55.4583 38.594C55.4823 38.102 55.4763 37.604 55.4403 37.1C55.4043 36.584 55.3983 36.074 55.4223 35.57C55.4583 35.042 55.5663 34.55 55.7463 34.094C55.9383 33.638 56.2503 33.242 56.6823 32.906C56.9463 32.714 57.2223 32.576 57.5103 32.492C57.8103 32.396 58.1103 32.432 58.4103 32.6C58.6863 32.756 58.8603 32.978 58.9323 33.266C59.0043 33.554 59.0463 33.848 59.0583 34.148C59.0703 34.244 59.0703 34.346 59.0583 34.454C59.0463 34.55 59.0523 34.646 59.0763 34.742C59.1003 34.802 59.1483 34.862 59.2203 34.922C59.2923 34.982 59.3583 35.018 59.4183 35.03C59.4783 35.042 59.5443 35.018 59.6163 34.958C59.7003 34.898 59.7483 34.844 59.7603 34.796C59.7843 34.64 59.8023 34.484 59.8143 34.328C59.8383 34.172 59.8383 34.016 59.8143 33.86C59.7543 33.08 59.5143 32.498 59.0943 32.114C58.6863 31.73 58.1403 31.562 57.4563 31.61C57.3363 31.622 57.1803 31.664 56.9883 31.736C56.7963 31.808 56.6223 31.904 56.4663 32.024C56.1663 32.252 55.9683 32.45 55.8723 32.618C55.7763 32.774 55.7043 32.87 55.6562 32.906ZM72.0918 25.706C72.3078 25.73 72.4818 25.82 72.6138 25.976C72.7458 26.132 72.8358 26.276 72.8838 26.408C72.9438 26.6 72.9138 26.834 72.7938 27.11C72.6858 27.374 72.5298 27.554 72.3258 27.65C72.2418 27.686 72.1578 27.722 72.0738 27.758C71.9898 27.782 71.9058 27.8 71.8218 27.812C71.3778 27.86 70.9338 27.908 70.4898 27.956C70.0578 27.992 69.6258 28.022 69.1938 28.046C68.9298 28.058 68.7318 28.07 68.5998 28.082C68.4798 28.082 68.4018 28.124 68.3658 28.208C68.3298 28.292 68.3058 28.472 68.2938 28.748C68.2458 30.092 68.1858 31.436 68.1138 32.78C68.0538 34.124 67.9938 35.474 67.9338 36.83C67.9218 37.202 67.9098 37.592 67.8978 38C67.8858 38.42 67.8498 38.822 67.7898 39.206C67.7418 39.542 67.6098 39.782 67.3938 39.926C67.1778 40.07 66.9318 40.148 66.6558 40.16C66.3918 40.172 66.1398 40.082 65.8998 39.89C65.6718 39.698 65.5398 39.428 65.5038 39.08C65.4558 38.624 65.4498 38.18 65.4858 37.748C65.5338 37.304 65.5638 36.842 65.5758 36.362C65.5998 35.69 65.6298 35.018 65.6658 34.346C65.7138 33.674 65.7558 33.008 65.7918 32.348C65.8158 31.796 65.8338 31.25 65.8458 30.71C65.8698 30.158 65.8878 29.606 65.8998 29.054C65.9118 28.754 65.8938 28.544 65.8458 28.424C65.7978 28.304 65.7018 28.238 65.5578 28.226C65.4138 28.202 65.1918 28.19 64.8918 28.19C64.4958 28.19 64.0938 28.196 63.6858 28.208C63.2898 28.208 62.8938 28.202 62.4978 28.19C62.3418 28.178 62.1618 28.148 61.9578 28.1C61.7658 28.052 61.6218 27.98 61.5258 27.884C61.4058 27.764 61.3278 27.602 61.2918 27.398C61.2678 27.194 61.2618 27.014 61.2738 26.858C61.2978 26.726 61.3458 26.576 61.4178 26.408C61.5018 26.24 61.6878 26.096 61.9758 25.976C62.7078 25.808 63.4338 25.724 64.1538 25.724C64.4778 25.712 64.9218 25.706 65.4858 25.706C66.0498 25.694 66.6678 25.682 67.3398 25.67C68.0118 25.658 68.6718 25.652 69.3198 25.652C69.9678 25.64 70.5378 25.64 71.0298 25.652C71.5338 25.664 71.8878 25.682 72.0918 25.706ZM65.9538 39.152C65.9658 39.176 65.9838 39.206 66.0078 39.242C66.0318 39.29 66.0558 39.344 66.0798 39.404C66.1878 39.56 66.3378 39.644 66.5298 39.656C66.7338 39.68 66.9078 39.626 67.0518 39.494C67.1118 39.458 67.1598 39.41 67.1958 39.35C67.2438 39.29 67.2678 39.2 67.2678 39.08C67.2798 38.972 67.2918 38.876 67.3038 38.792C67.3518 37.964 67.3938 37.13 67.4298 36.29C67.4658 35.438 67.5078 34.592 67.5558 33.752C67.5918 32.828 67.6278 31.916 67.6638 31.016C67.7118 30.104 67.7538 29.192 67.7898 28.28C67.8018 27.824 68.0598 27.602 68.5638 27.614C68.8038 27.614 69.1038 27.602 69.4638 27.578C69.8358 27.554 70.2078 27.524 70.5798 27.488C70.9518 27.452 71.2758 27.416 71.5518 27.38C71.8398 27.332 72.0078 27.296 72.0558 27.272C72.2718 27.152 72.3978 26.99 72.4338 26.786C72.4698 26.582 72.3798 26.42 72.1638 26.3C72.0078 26.204 71.8218 26.138 71.6058 26.102C71.4018 26.066 71.2098 26.048 71.0298 26.048C70.3098 26.06 69.5898 26.078 68.8698 26.102C68.1618 26.126 67.4358 26.126 66.6918 26.102C65.9838 26.078 65.2698 26.102 64.5498 26.174C63.8418 26.246 63.1278 26.306 62.4078 26.354C62.2158 26.366 62.0478 26.408 61.9038 26.48C61.7718 26.552 61.6938 26.708 61.6698 26.948C61.6578 27.176 61.7118 27.368 61.8318 27.524C61.9638 27.68 62.1198 27.764 62.2998 27.776C62.7438 27.788 63.1878 27.806 63.6318 27.83C64.0758 27.842 64.5138 27.836 64.9458 27.812C65.4018 27.764 65.7438 27.758 65.9718 27.794C66.2118 27.818 66.3678 27.926 66.4398 28.118C66.5118 28.31 66.5358 28.634 66.5118 29.09C66.5118 29.174 66.5058 29.258 66.4938 29.342C66.4938 29.414 66.4878 29.486 66.4758 29.558C66.4398 29.978 66.3978 30.488 66.3498 31.088C66.3138 31.676 66.2718 32.312 66.2238 32.996C66.1758 33.668 66.1338 34.346 66.0978 35.03C66.0618 35.702 66.0258 36.332 65.9898 36.92C65.9658 37.496 65.9478 37.982 65.9358 38.378C65.9358 38.774 65.9418 39.032 65.9538 39.152ZM79.4414 33.59C79.4414 33.206 79.4354 32.852 79.4234 32.528C79.4114 32.204 79.4114 31.856 79.4234 31.484C79.4234 31.28 79.4594 31.106 79.5314 30.962C79.6154 30.806 79.7534 30.704 79.9454 30.656C80.1974 30.584 80.4134 30.62 80.5934 30.764C80.7734 30.896 80.8694 31.106 80.8814 31.394C80.8934 31.91 80.8994 32.426 80.8994 32.942C80.8994 33.458 80.8874 33.98 80.8634 34.508C80.8634 34.856 80.8514 35.21 80.8274 35.57C80.8034 35.93 80.7614 36.284 80.7014 36.632C80.6534 36.992 80.5814 37.346 80.4854 37.694C80.4014 38.042 80.3114 38.39 80.2154 38.738C80.1314 39.002 79.9814 39.218 79.7654 39.386C79.5614 39.554 79.3334 39.674 79.0814 39.746C78.4934 39.914 77.8934 39.998 77.2814 39.998C76.6814 39.998 76.0934 39.866 75.5174 39.602C75.1814 39.434 74.9174 39.224 74.7254 38.972C74.5454 38.72 74.4134 38.42 74.3294 38.072C74.1374 37.232 74.0294 36.392 74.0054 35.552C73.9814 34.712 73.9994 33.872 74.0594 33.032C74.0834 32.768 74.1014 32.51 74.1134 32.258C74.1254 32.006 74.1434 31.754 74.1674 31.502C74.1794 31.406 74.1914 31.31 74.2034 31.214C74.2274 31.106 74.2634 31.01 74.3114 30.926C74.3954 30.758 74.5034 30.644 74.6354 30.584C74.7794 30.524 74.9234 30.518 75.0674 30.566C75.3314 30.65 75.5054 30.812 75.5894 31.052C75.6374 31.172 75.6614 31.286 75.6614 31.394C75.6734 31.49 75.6734 31.604 75.6614 31.736C75.5894 32.66 75.5414 33.584 75.5174 34.508C75.5054 35.432 75.5774 36.35 75.7334 37.262C75.9134 38.222 76.4894 38.666 77.4614 38.594C77.9894 38.546 78.3794 38.42 78.6314 38.216C78.8954 38.024 79.0694 37.67 79.1534 37.154C79.2014 36.854 79.2434 36.506 79.2794 36.11C79.3274 35.702 79.3634 35.306 79.3874 34.922C79.4114 34.538 79.4294 34.22 79.4414 33.968C79.4534 33.716 79.4534 33.59 79.4414 33.59ZM75.3374 31.466C75.3014 31.37 75.2534 31.268 75.1934 31.16C75.1334 31.04 75.0554 30.974 74.9594 30.962C74.8634 30.95 74.7674 30.992 74.6714 31.088C74.5874 31.172 74.5274 31.262 74.4914 31.358C74.4554 31.454 74.4254 31.676 74.4014 32.024C74.3894 32.36 74.3774 32.78 74.3654 33.284C74.3654 33.776 74.3714 34.298 74.3834 34.85C74.4074 35.39 74.4374 35.924 74.4734 36.452C74.5214 36.968 74.5814 37.424 74.6534 37.82C74.7614 38.372 74.9594 38.786 75.2474 39.062C75.5474 39.35 75.9854 39.542 76.5614 39.638C76.9214 39.71 77.2694 39.734 77.6054 39.71C77.9534 39.686 78.2954 39.638 78.6314 39.566C79.0634 39.47 79.3874 39.29 79.6034 39.026C79.8194 38.762 79.9694 38.444 80.0534 38.072C80.3174 37.04 80.4614 36.008 80.4854 34.976C80.5094 33.932 80.5394 32.894 80.5754 31.862C80.5874 31.802 80.5814 31.712 80.5574 31.592C80.5454 31.472 80.5154 31.358 80.4674 31.25C80.4194 31.13 80.3474 31.064 80.2514 31.052C80.1794 31.04 80.1014 31.064 80.0174 31.124C79.9334 31.184 79.8734 31.244 79.8374 31.304C79.7894 31.364 79.7594 31.442 79.7474 31.538C79.7354 31.634 79.7294 31.73 79.7294 31.826C79.7294 32.426 79.7294 33.032 79.7294 33.644C79.7414 34.244 79.7294 34.844 79.6934 35.444C79.6694 35.852 79.6214 36.26 79.5494 36.668C79.4774 37.064 79.3754 37.454 79.2434 37.838C79.1474 38.15 78.9674 38.402 78.7034 38.594C78.4394 38.786 78.1394 38.912 77.8034 38.972C77.4794 39.044 77.1494 39.038 76.8134 38.954C76.4894 38.882 76.2134 38.726 75.9854 38.486C75.7334 38.246 75.5654 37.97 75.4814 37.658C75.3974 37.346 75.3554 37.028 75.3554 36.704C75.3434 36.404 75.3374 36.044 75.3374 35.624C75.3374 35.192 75.3374 34.748 75.3374 34.292C75.3494 33.824 75.3554 33.386 75.3554 32.978C75.3554 32.558 75.3554 32.216 75.3554 31.952C75.3554 31.676 75.3494 31.514 75.3374 31.466ZM85.1467 39.656C84.8467 39.644 84.5467 39.62 84.2467 39.584C83.9587 39.548 83.6647 39.518 83.3647 39.494C82.8127 39.458 82.5007 39.188 82.4287 38.684C82.3927 38.444 82.3627 38.216 82.3387 38C82.3147 37.772 82.3087 37.544 82.3207 37.316C82.4047 35.924 82.4947 34.538 82.5907 33.158C82.6867 31.766 82.7767 30.374 82.8607 28.982C82.9087 28.358 82.9447 27.734 82.9687 27.11C83.0047 26.486 83.0527 25.862 83.1127 25.238C83.1127 25.106 83.1427 24.962 83.2027 24.806C83.2627 24.638 83.3407 24.53 83.4367 24.482C83.6047 24.362 83.7967 24.26 84.0127 24.176C84.2407 24.092 84.4567 24.062 84.6607 24.086C84.9007 24.098 85.0447 24.212 85.0927 24.428C85.1527 24.632 85.1767 24.83 85.1647 25.022C85.1407 25.586 85.1047 26.156 85.0567 26.732C85.0207 27.308 84.9847 27.884 84.9487 28.46C84.9367 28.844 84.9247 29.234 84.9127 29.63C84.9007 30.026 84.8887 30.416 84.8767 30.8C84.8647 30.992 84.8947 31.124 84.9667 31.196C85.0387 31.256 85.1767 31.262 85.3807 31.214C86.0287 31.058 86.6407 31.064 87.2167 31.232C87.8047 31.388 88.3147 31.664 88.7467 32.06C89.1787 32.456 89.5027 32.942 89.7187 33.518C89.9347 34.082 90.0007 34.706 89.9167 35.39C89.9047 35.546 89.8867 35.696 89.8627 35.84C89.8387 35.972 89.8087 36.11 89.7727 36.254C89.5327 37.49 89.0587 38.378 88.3507 38.918C87.6547 39.458 86.5867 39.704 85.1467 39.656ZM86.0467 39.314C86.9827 39.23 87.6967 38.966 88.1887 38.522C88.6807 38.09 89.0287 37.424 89.2327 36.524C89.4007 35.744 89.4547 34.946 89.3947 34.13C89.3827 33.878 89.3167 33.62 89.1967 33.356C89.0887 33.08 88.9507 32.846 88.7827 32.654C87.7747 31.49 86.5387 31.184 85.0747 31.736C84.7507 31.856 84.5287 31.88 84.4087 31.808C84.2887 31.724 84.2347 31.532 84.2467 31.232C84.3067 30.44 84.3667 29.648 84.4267 28.856C84.4867 28.064 84.5467 27.272 84.6067 26.48C84.6307 26.24 84.6547 26 84.6787 25.76C84.7147 25.508 84.7207 25.262 84.6967 25.022C84.6847 24.926 84.6307 24.824 84.5347 24.716C84.4387 24.596 84.3487 24.53 84.2647 24.518C84.1807 24.494 84.0787 24.518 83.9587 24.59C83.8387 24.662 83.7367 24.734 83.6527 24.806C83.6047 24.842 83.5687 24.908 83.5447 25.004C83.5327 25.088 83.5267 25.172 83.5267 25.256C83.5027 25.604 83.4787 25.952 83.4547 26.3C83.4427 26.648 83.4247 26.996 83.4007 27.344C83.3407 28.448 83.2747 29.558 83.2027 30.674C83.1307 31.79 83.0647 32.9 83.0047 34.004C82.9687 34.688 82.9267 35.366 82.8787 36.038C82.8427 36.71 82.8127 37.382 82.7887 38.054C82.7887 38.378 82.8127 38.618 82.8607 38.774C82.9207 38.93 83.0347 39.032 83.2027 39.08C83.3707 39.128 83.6107 39.17 83.9227 39.206C84.1747 39.218 84.4987 39.248 84.8947 39.296C85.2907 39.344 85.6747 39.35 86.0467 39.314ZM85.2187 38.414C85.0987 38.414 84.9667 38.402 84.8227 38.378C84.6907 38.354 84.5527 38.33 84.4087 38.306C83.9527 38.234 83.7367 37.97 83.7607 37.514C83.7847 36.974 83.8087 36.434 83.8327 35.894C83.8687 35.342 83.9107 34.796 83.9587 34.256C84.0187 33.68 84.1987 33.254 84.4987 32.978C84.8107 32.702 85.2667 32.528 85.8667 32.456C86.4427 32.384 86.9647 32.474 87.4327 32.726C87.9007 32.978 88.2127 33.35 88.3687 33.842C88.5967 34.514 88.6507 35.162 88.5307 35.786C88.4227 36.41 88.1587 37.01 87.7387 37.586C87.4267 37.994 87.0427 38.228 86.5867 38.288C86.1427 38.36 85.6867 38.402 85.2187 38.414ZM84.3907 36.182C84.3787 36.758 84.3847 37.166 84.4087 37.406C84.4447 37.646 84.5707 37.79 84.7867 37.838C85.0027 37.874 85.3687 37.886 85.8847 37.874C85.9807 37.874 86.0407 37.868 86.0647 37.856C86.5687 37.832 86.9827 37.664 87.3067 37.352C87.6427 37.028 87.8467 36.614 87.9187 36.11C88.0507 35.222 88.0627 34.58 87.9547 34.184C87.8467 33.788 87.6127 33.482 87.2527 33.266C86.5327 32.822 85.8067 32.81 85.0747 33.23C84.9547 33.302 84.8407 33.416 84.7327 33.572C84.6367 33.728 84.5767 33.878 84.5527 34.022C84.4807 34.406 84.4387 34.784 84.4267 35.156C84.4147 35.528 84.4027 35.87 84.3907 36.182ZM93.0961 34.364C92.9401 34.34 92.8081 34.364 92.7001 34.436C92.5921 34.508 92.5321 34.622 92.5201 34.778C92.5081 35.15 92.5021 35.462 92.5021 35.714C92.5141 35.966 92.5501 36.212 92.6101 36.452C92.6821 36.692 92.7901 36.98 92.9341 37.316C92.9821 37.4 93.0961 37.526 93.2761 37.694C93.4681 37.862 93.6061 37.97 93.6901 38.018C93.9661 38.174 94.2841 38.282 94.6441 38.342C95.0041 38.402 95.3881 38.378 95.7961 38.27C96.2041 38.162 96.6121 37.934 97.0201 37.586C97.1161 37.43 97.2361 37.304 97.3801 37.208C97.5361 37.1 97.7101 37.112 97.9021 37.244C98.0701 37.34 98.1661 37.514 98.1901 37.766C98.2141 38.006 98.1661 38.222 98.0461 38.414C97.6741 39.074 97.1161 39.476 96.3721 39.62C95.9881 39.692 95.6701 39.734 95.4181 39.746C95.1781 39.77 94.9321 39.764 94.6801 39.728C94.4281 39.704 94.0921 39.662 93.6721 39.602C93.0601 39.506 92.5681 39.254 92.1961 38.846C91.8241 38.45 91.5421 37.976 91.3501 37.424C91.2661 37.208 91.1941 36.986 91.1341 36.758C91.0861 36.518 91.0501 36.284 91.0261 36.056C91.0141 35.816 90.9901 35.588 90.9541 35.372C90.9181 35.144 90.8161 34.928 90.6481 34.724C90.5161 34.532 90.4801 34.292 90.5401 34.004C90.6001 33.704 90.7081 33.47 90.8641 33.302C90.9241 33.242 90.9901 33.176 91.0621 33.104C91.1341 33.032 91.1821 32.954 91.2061 32.87C91.5181 32.006 91.9921 31.394 92.6281 31.034C93.2761 30.662 94.0201 30.434 94.8601 30.35C95.3401 30.29 95.7961 30.308 96.2281 30.404C96.6721 30.5 97.0921 30.698 97.4881 30.998C97.8481 31.262 98.1001 31.586 98.2441 31.97C98.4001 32.342 98.4241 32.75 98.3161 33.194C98.2681 33.422 98.1901 33.668 98.0821 33.932C97.9741 34.196 97.8001 34.34 97.5601 34.364C97.3081 34.388 96.9601 34.406 96.5161 34.418C96.0721 34.418 95.6101 34.418 95.1301 34.418C94.6621 34.406 94.2361 34.4 93.8521 34.4C93.4801 34.388 93.2281 34.376 93.0961 34.364ZM94.8601 33.932C95.2441 33.932 95.6281 33.938 96.0121 33.95C96.3961 33.95 96.7801 33.944 97.1641 33.932C97.4881 33.908 97.7161 33.824 97.8481 33.68C97.9921 33.524 98.0701 33.284 98.0821 32.96C98.0941 32.456 97.9501 32.024 97.6501 31.664C97.3621 31.292 96.9541 31.046 96.4261 30.926C95.9101 30.818 95.4061 30.782 94.9141 30.818C94.4221 30.854 93.9301 30.956 93.4381 31.124C92.4901 31.436 91.9081 32.066 91.6921 33.014C91.6441 33.326 91.4821 33.578 91.2061 33.77C91.0261 33.89 90.9181 34.058 90.8821 34.274C90.8461 34.49 90.9061 34.646 91.0621 34.742C91.2901 34.886 91.4101 35.054 91.4221 35.246C91.4461 35.438 91.4641 35.636 91.4761 35.84C91.5001 36.452 91.6261 37.028 91.8541 37.568C92.0821 38.096 92.4301 38.528 92.8981 38.864C93.3661 39.212 93.9781 39.416 94.7341 39.476C95.3101 39.512 95.8621 39.464 96.3901 39.332C96.9181 39.212 97.3801 38.912 97.7761 38.432C97.8721 38.3 97.9441 38.162 97.9921 38.018C98.0401 37.874 97.9921 37.742 97.8481 37.622C97.7041 37.49 97.5841 37.49 97.4881 37.622C97.4041 37.742 97.3261 37.85 97.2541 37.946C96.9421 38.258 96.5341 38.48 96.0301 38.612C95.5381 38.756 94.9741 38.786 94.3381 38.702C93.6901 38.618 93.1921 38.33 92.8441 37.838C92.4961 37.274 92.3041 36.692 92.2681 36.092C92.2321 35.48 92.2321 34.874 92.2681 34.274C92.2801 34.13 92.3221 34.034 92.3941 33.986C92.4781 33.938 92.5801 33.914 92.7001 33.914C93.0721 33.926 93.4321 33.932 93.7801 33.932C94.1401 33.932 94.5001 33.932 94.8601 33.932ZM92.9701 33.356C92.5261 33.32 92.3941 33.116 92.5741 32.744C92.6461 32.588 92.7241 32.432 92.8081 32.276C92.9041 32.12 93.0121 32.006 93.1321 31.934C93.5881 31.694 94.0501 31.526 94.5181 31.43C94.9981 31.322 95.4961 31.322 96.0121 31.43C96.3001 31.502 96.5461 31.622 96.7501 31.79C96.9661 31.946 97.1161 32.162 97.2001 32.438C97.4041 33.062 97.1821 33.392 96.5341 33.428C96.4021 33.44 96.2641 33.446 96.1201 33.446C95.9881 33.434 95.8501 33.428 95.7061 33.428H94.9141C94.9141 33.428 94.7941 33.422 94.5541 33.41C94.3261 33.398 94.0561 33.386 93.7441 33.374C93.4441 33.362 93.1861 33.356 92.9701 33.356ZM94.9141 33.032C94.9141 33.032 94.9861 33.032 95.1301 33.032C95.2861 33.02 95.4601 33.014 95.6521 33.014C95.8561 33.014 96.0301 33.014 96.1741 33.014C96.3181 33.014 96.4621 33.002 96.6061 32.978C96.7621 32.954 96.8461 32.858 96.8581 32.69C96.8581 32.582 96.8041 32.462 96.6961 32.33C96.6001 32.198 96.5041 32.108 96.4081 32.06C95.4841 31.58 94.5421 31.592 93.5821 32.096C93.4981 32.144 93.4261 32.21 93.3661 32.294C93.3061 32.378 93.2461 32.462 93.1861 32.546C93.1021 32.69 93.0781 32.81 93.1141 32.906C93.1621 32.99 93.2761 33.032 93.4561 33.032H94.9141Z" fill="#06B6D4"/>
<rect x="3" y="25" width="27" height="15" rx="4" fill="#06B6D4"/>
<path d="M21.5 32.5L14.75 37.6962V27.3038L21.5 32.5Z" fill="white"/>
</svg>
